<svg width="295" height="60" viewBox="0 0 295 60" fill="none" xmlns="http://www.w3.org/2000/svg">
<path d="M35.3156 14.1911C36.6449 15.6228 37.3098 17.6338 37.3098 20.2245V40.0631H29.2307V21.6048C29.2307 20.2423 29.0178 19.2962 28.592 18.767C28.1653 18.2388 27.5262 17.9749 26.6741 17.9749C25.0379 17.9749 23.47 19.1512 21.9704 21.5023V40.0631H13.8918V12.9133H20.9476L21.51 16.1338C22.6685 14.7708 23.9211 13.7484 25.2681 13.0663C26.6143 12.385 28.1227 12.0435 29.7931 12.0435C32.1457 12.0435 33.9859 12.7593 35.3156 14.1911" fill="white"/>
<path fill-rule="evenodd" clip-rule="evenodd" d="M83.7994 26.5134C83.7994 21.9464 82.6236 18.3927 80.2711 15.853C77.9194 13.3138 74.6639 12.0435 70.5052 12.0435C67.7779 12.0435 65.4179 12.6405 63.4237 13.8336C61.43 15.0267 59.8958 16.705 58.822 18.8695C57.7487 21.0344 57.2115 23.5657 57.2115 26.4624C57.2115 31.0309 58.3953 34.5841 60.7652 37.1228C63.1336 39.663 66.3808 40.9324 70.5052 40.9324C73.2321 40.9324 75.5926 40.3354 77.5872 39.1427C79.5814 37.9501 81.1151 36.2718 82.1889 34.1064C83.2627 31.9424 83.7994 29.4115 83.7994 26.5134ZM65.5971 26.4624C65.5971 23.5657 66.0061 21.426 66.8239 20.0457C67.6423 18.665 68.8691 17.9748 70.5053 17.9748C72.1757 17.9748 73.4109 18.6566 74.2124 20.02C75.0129 21.3834 75.4139 23.5479 75.4139 26.5134C75.4139 29.4115 75.005 31.5502 74.1866 32.93C73.3688 34.3108 72.1415 35.0009 70.5053 35.0009C68.8349 35.0009 67.5987 34.3201 66.7982 32.9558C65.9972 31.5933 65.5971 29.4283 65.5971 26.4624Z" fill="white"/>
<path d="M61.5904 12.9113H51.1424V10.8156C51.1424 9.51905 51.3998 8.60198 51.9098 8.05455C52.4198 7.5118 53.2573 7.23574 54.413 7.23574C55.8822 7.23574 57.2952 7.57777 58.6568 8.26089L60.8558 2.99198C58.61 1.83629 56.1348 1.2561 53.4445 1.2561C50.1037 1.2561 47.5397 2.11749 45.7477 3.83886C43.9603 5.5607 43.062 7.78317 43.062 10.511V12.9113H36.3665C37.6251 14.3945 38.3784 16.2801 38.6264 18.5358H43.062V40.0629H51.1424V18.5358H57.3326C57.4356 18.2967 57.5432 18.0627 57.6601 17.8288C58.638 15.8641 59.9528 14.212 61.5904 12.9113" fill="white"/>
<path d="M102.891 20.3277C101.866 20.0886 101.052 19.9669 100.435 19.9669C98.8345 19.9669 97.618 20.5242 96.7805 21.628C95.9476 22.7369 95.2879 24.3979 94.8107 26.6157V40.0633H86.7349V12.9112H93.7907L94.4551 18.1801C95.068 16.3034 95.9944 14.83 97.239 13.7585C98.4836 12.6824 99.8919 12.1443 101.459 12.1443C101.96 12.1443 102.437 12.177 102.891 12.2327V20.3277Z" fill="white"/>
<path d="M140.542 14.2168C141.838 15.6659 142.485 17.668 142.485 20.2245V40.0631H134.407V21.6048C134.407 19.1849 133.64 17.9749 132.106 17.9749C131.253 17.9749 130.503 18.2645 129.856 18.8442C129.208 19.424 128.578 20.3097 127.964 21.5023V40.0631H119.886V21.6048C119.886 19.1849 119.119 17.9749 117.585 17.9749C116.767 17.9749 116.026 18.2739 115.361 18.8695C114.696 19.4665 114.057 20.3448 113.443 21.5023V40.0631H105.365V12.233H112.42L112.983 16.0828C114.039 14.7198 115.208 13.7054 116.485 13.0405C117.764 12.3757 119.221 12.0435 120.857 12.0435C122.391 12.0435 123.712 12.4187 124.82 13.1687C125.927 13.9183 126.737 14.9757 127.249 16.3382C128.339 14.8733 129.541 13.791 130.853 13.092C132.165 12.3939 133.673 12.0435 135.378 12.0435C137.526 12.0435 139.246 12.7682 140.542 14.2168" fill="white"/>
<path fill-rule="evenodd" clip-rule="evenodd" d="M152.997 18.3063C151.786 18.5543 150.551 18.8865 149.278 19.3029V13.3513C150.34 13.0285 151.416 12.7664 152.511 12.5559C154.298 12.2148 155.959 12.0459 157.494 12.0459C161.382 12.0459 164.227 12.846 166.033 14.4462C167.839 16.051 168.742 18.4513 168.742 21.6564V32.1886C168.742 33.2133 168.887 33.9619 169.177 34.4396C169.467 34.9164 169.935 35.2767 170.585 35.5106L168.897 40.779C167.226 40.6434 165.864 40.2737 164.807 39.6795C163.75 39.0853 162.931 38.1355 162.351 36.8441C160.577 39.5677 157.854 40.9334 154.172 40.9334C151.477 40.9334 149.329 40.1474 147.729 38.58C146.125 37.013 145.324 34.9678 145.324 32.4459C145.324 29.4795 146.414 27.2149 148.599 25.6428C150.78 24.0754 153.933 23.294 158.056 23.294H160.816V22.1149C160.816 20.5147 160.479 19.4152 159.796 18.8163C159.113 18.2221 157.92 17.9226 156.216 17.9226C155.328 17.9226 154.256 18.0536 152.997 18.3063ZM156.525 35.1549C158.364 35.1549 159.796 34.2851 160.816 32.5492V27.7388H158.823C156.984 27.7388 155.608 28.0664 154.71 28.712C153.802 29.3577 153.353 30.3637 153.353 31.7304C153.353 32.8201 153.634 33.6623 154.196 34.2612C154.757 34.8554 155.533 35.1549 156.525 35.1549Z" fill="white"/>
<path d="M187.629 33.672C186.607 34.2512 185.635 34.5409 184.715 34.5409C183.828 34.5409 183.181 34.2685 182.772 33.7225C182.363 33.1779 182.159 32.2744 182.159 31.0125V18.5367H187.527V12.9131H182.159V6.1123L174.08 7.03218V12.9131H166.879C168.403 14.3589 169.398 16.2417 169.854 18.5367H174.08V31.115C174.08 37.6261 177.046 40.8976 182.977 40.9322C184.272 40.9322 185.575 40.7441 186.888 40.3694C188.2 39.9951 189.351 39.4668 190.339 38.7851L187.629 33.672Z" fill="white"/>
<mask id="mask0_1_935" style="mask-type:luminance" maskUnits="userSpaceOnUse" x="0" y="0" width="252" height="41">
<path fill-rule="evenodd" clip-rule="evenodd" d="M0 40.9334H251.109V0H0V40.9334Z" fill="white"/>
</mask>
<g mask="url(#mask0_1_935)">
<path fill-rule="evenodd" clip-rule="evenodd" d="M201.844 4.6017C201.844 3.27196 201.391 2.17288 200.489 1.30354C199.585 0.43467 198.434 0 197.037 0C195.639 0 194.497 0.43467 193.611 1.30354C192.724 2.17288 192.282 3.27196 192.282 4.6017C192.282 5.93145 192.724 7.03052 193.611 7.89986C194.497 8.76873 195.639 9.2034 197.037 9.2034C198.434 9.2034 199.585 8.76873 200.489 7.89986C201.391 7.03052 201.844 5.93145 201.844 4.6017ZM201.127 40.0632H193.049V12.9134H201.127V40.0632Z" fill="white"/>
</g>
<mask id="mask1_1_935" style="mask-type:luminance" maskUnits="userSpaceOnUse" x="0" y="0" width="252" height="41">
<path fill-rule="evenodd" clip-rule="evenodd" d="M0 40.9334H251.109V0H0V40.9334Z" fill="white"/>
</mask>
<g mask="url(#mask1_1_935)">
<path d="M222.886 12.862C224.385 13.4076 225.801 14.2418 227.129 15.3671L223.653 20.1738C221.948 18.8782 220.227 18.2306 218.489 18.2306C216.681 18.2306 215.318 18.8955 214.398 20.2243C213.478 21.5536 213.018 23.7012 213.018 26.6671C213.018 29.5306 213.478 31.5585 214.398 32.7516C215.318 33.9456 216.648 34.5413 218.386 34.5413C219.307 34.5413 220.142 34.3962 220.891 34.1061C221.641 33.8174 222.545 33.3482 223.601 32.7001L227.129 37.7112C224.436 39.8588 221.386 40.9322 217.977 40.9322C215.216 40.9322 212.83 40.344 210.819 39.1682C208.807 37.9924 207.257 36.3398 206.166 34.2086C205.075 32.0788 204.53 29.5812 204.53 26.7177C204.53 23.8547 205.075 21.3159 206.166 19.1C207.257 16.8845 208.807 15.1547 210.819 13.9101C212.83 12.666 215.165 12.0437 217.824 12.0437C219.698 12.0437 221.386 12.3169 222.886 12.862" fill="white"/>
</g>
<mask id="mask2_1_935" style="mask-type:luminance" maskUnits="userSpaceOnUse" x="0" y="0" width="252" height="41">
<path fill-rule="evenodd" clip-rule="evenodd" d="M0 40.9334H251.109V0H0V40.9334Z" fill="white"/>
</mask>
<g mask="url(#mask2_1_935)">
<path d="M245.587 12.9133C247.291 13.4925 248.791 14.3109 250.086 15.3669L247.121 19.9181C244.905 18.5205 242.673 17.8215 240.423 17.8215C239.366 17.8215 238.557 18.0007 237.994 18.3586C237.432 18.7161 237.151 19.22 237.151 19.8666C237.151 20.378 237.278 20.7963 237.534 21.1196C237.79 21.4439 238.309 21.7756 239.093 22.1167C239.877 22.4573 241.088 22.8667 242.724 23.3435C245.553 24.1618 247.658 25.2272 249.038 26.5392C250.419 27.8521 251.109 29.667 251.109 31.9845C251.109 33.8252 250.58 35.4193 249.524 36.7659C248.467 38.1125 247.019 39.1432 245.178 39.8591C243.337 40.5745 241.292 40.9324 239.043 40.9324C236.759 40.9324 234.637 40.5745 232.677 39.8591C230.716 39.1432 229.054 38.1546 227.691 36.8931L231.629 32.4964C233.912 34.2692 236.315 35.1545 238.838 35.1545C240.065 35.1545 241.028 34.9336 241.727 34.4901C242.425 34.0474 242.775 33.4162 242.775 32.5984C242.775 31.9508 242.638 31.4399 242.366 31.0642C242.092 30.6894 241.564 30.3403 240.781 30.0161C239.996 29.6923 238.753 29.2923 237.048 28.8141C234.355 28.0313 232.344 26.9402 231.015 25.5421C229.686 24.145 229.021 22.4063 229.021 20.327C229.021 18.7591 229.473 17.3531 230.376 16.1085C231.279 14.8649 232.574 13.8767 234.262 13.143C235.949 12.4108 237.9 12.0439 240.116 12.0439C242.059 12.0439 243.882 12.334 245.587 12.9133" fill="white"/>
</g>
<mask id="mask3_1_935" style="mask-type:luminance" maskUnits="userSpaceOnUse" x="0" y="0" width="252" height="41">
<path fill-rule="evenodd" clip-rule="evenodd" d="M0 40.9334H251.109V0H0V40.9334Z" fill="white"/>
</mask>
<g mask="url(#mask3_1_935)">
<path d="M0 40.063H8.38506V4.62964H0V40.063Z" fill="white"/>
</g>
<path fill-rule="evenodd" clip-rule="evenodd" d="M229.688 55.4301C228.991 56.3878 227.996 57.0844 226.528 57.0844C224.14 57.0844 222.262 55.343 222.262 52.7931C222.262 50.2431 224.14 48.5017 226.528 48.5017C227.996 48.5017 229.016 49.1983 229.675 50.1436L228.817 50.6287C228.345 49.9197 227.474 49.4222 226.528 49.4222C224.712 49.4222 223.332 50.8029 223.332 52.7931C223.332 54.7584 224.712 56.1639 226.528 56.1639C227.474 56.1639 228.345 55.654 228.817 54.9574L229.688 55.4301ZM183.951 56.9352V51.7483H185.17V50.9273H183.951V50.4671C183.951 49.6959 184.287 49.2854 184.909 49.2854C185.207 49.2854 185.444 49.3973 185.643 49.5715L186.028 48.9744C185.655 48.6262 185.245 48.5142 184.759 48.5142C183.702 48.5142 183.018 49.2356 183.018 50.4671V50.9273H182.023V51.7483H183.018V56.9352H183.951ZM23.5663 55.0818L22.8324 56.9352H21.6508L24.9968 48.6386H26.2779L29.6115 56.9352H28.4298L27.696 55.0818H23.5663ZM23.8773 54.1737H27.3975L25.6312 49.6958L23.8773 54.1737ZM31.5894 56.9352V52.5444C31.9501 52.0592 32.6342 51.6115 33.3681 51.6115C34.1766 51.6115 34.7239 51.9349 34.7239 53.0046V56.9352H35.6444V52.7185C35.6444 51.4124 34.9851 50.7781 33.7413 50.7781C32.8333 50.7781 32.0123 51.288 31.5894 51.798V50.9273H30.6565V56.9352H31.5894ZM45.8565 56.1516C45.247 56.7486 44.4385 57.0845 43.4682 57.0845C41.6771 57.0845 40.3959 55.8033 40.3959 53.925C40.3959 52.1836 41.6398 50.7781 43.3563 50.7781C45.1723 50.7781 46.2421 52.1961 46.2421 53.9997V54.236H41.391C41.4656 55.3679 42.2493 56.3133 43.5429 56.3133C44.2394 56.3133 44.9236 56.0396 45.4087 55.5421L45.8565 56.1516ZM45.3217 53.5394H41.3786C41.4284 52.6314 42.0627 51.5492 43.3439 51.5492C44.7122 51.5492 45.3092 52.6563 45.3217 53.5394ZM50.1727 53.5145V54.3355H47.1874V53.5145H50.1727ZM53.8918 59.3732C55.3595 59.3732 56.7651 58.7513 56.7651 56.8481V50.9273H55.8322V51.8353C55.3471 51.1761 54.6132 50.7781 53.8047 50.7781C52.225 50.7781 51.1304 51.9722 51.1304 53.9002C51.1304 55.8406 52.2374 57.0098 53.8047 57.0098C54.6505 57.0098 55.3844 56.5496 55.8322 55.9401V56.8481C55.8322 58.1169 54.8869 58.602 53.8918 58.602C53.0335 58.602 52.4364 58.3781 51.9389 57.7935L51.4662 58.4652C52.1877 59.1742 52.8842 59.3732 53.8918 59.3732ZM52.1008 53.9001C52.1008 55.2186 52.8222 56.1764 54.0412 56.1764C54.7751 56.1764 55.4965 55.7286 55.8324 55.2062V52.5692C55.4965 52.0592 54.7751 51.6114 54.0412 51.6114C52.8222 51.6114 52.1008 52.5692 52.1008 53.9001ZM61.2555 57.0845C63.084 57.0845 64.2284 55.6665 64.2284 53.925C64.2284 52.1836 63.084 50.7781 61.2555 50.7781C59.427 50.7781 58.2827 52.1836 58.2827 53.925C58.2827 55.6665 59.427 57.0845 61.2555 57.0845ZM59.2654 53.925C59.2654 55.1564 59.9744 56.251 61.2556 56.251C62.5368 56.251 63.2458 55.1564 63.2458 53.925C63.2458 52.706 62.5368 51.6114 61.2556 51.6114C59.9744 51.6114 59.2654 52.706 59.2654 53.925ZM68.3706 56.9352L70.8707 50.9273H69.8632L67.8606 55.853L65.8704 50.9273H64.8504L67.3506 56.9352H68.3706ZM76.9531 56.1516C76.3436 56.7486 75.5351 57.0845 74.5649 57.0845C72.7737 57.0845 71.4925 55.8033 71.4925 53.925C71.4925 52.1836 72.7364 50.7781 74.4529 50.7781C76.269 50.7781 77.3387 52.1961 77.3387 53.9997V54.236H72.4876C72.5623 55.3679 73.3459 56.3133 74.6395 56.3133C75.3361 56.3133 76.0202 56.0396 76.5053 55.5421L76.9531 56.1516ZM76.4183 53.5394H72.4753C72.525 52.6314 73.1594 51.5492 74.4406 51.5492C75.8088 51.5492 76.4059 52.6563 76.4183 53.5394ZM79.7768 52.6811V56.9351H78.8439V50.9272H79.7768V51.885C80.2619 51.2631 80.9585 50.7904 81.7794 50.7904V51.7482C81.6675 51.7358 81.5555 51.7233 81.4187 51.7233C80.8341 51.7233 80.0505 52.196 79.7768 52.6811ZM83.8815 56.9352V52.5444C84.2423 52.0592 84.9264 51.6115 85.6603 51.6115C86.4688 51.6115 87.0161 51.9349 87.0161 53.0046V56.9352H87.9365V52.7185C87.9365 51.4124 87.2773 50.7781 86.0334 50.7781C85.1254 50.7781 84.3044 51.288 83.8815 51.798V50.9273H82.9486V56.9352H83.8815ZM93.5712 56.2511C93.0861 56.7984 92.3896 57.0845 91.5811 57.0845C90.5735 57.0845 89.4914 56.4003 89.4914 55.0943C89.4914 53.7385 90.5611 53.1165 91.5811 53.1165C92.402 53.1165 93.0861 53.3777 93.5712 53.925V52.8429C93.5712 52.0468 92.9244 51.5866 92.0537 51.5866C91.3323 51.5866 90.7477 51.8353 90.2128 52.42L89.7774 51.7732C90.4243 51.1015 91.1955 50.7781 92.1781 50.7781C93.4593 50.7781 94.5041 51.3502 94.5041 52.8056V56.9352H93.5712V56.2511ZM91.9294 56.4128C91.0462 56.4128 90.4367 55.8655 90.4367 55.0943C90.4367 54.3355 91.0462 53.7882 91.9294 53.7882C92.5762 53.7882 93.2106 54.037 93.5713 54.5221V55.6665C93.2106 56.164 92.5762 56.4128 91.9294 56.4128ZM97.3152 52.5444V56.9352H96.3823V50.9273H97.3152V51.798C97.7381 51.288 98.559 50.7781 99.467 50.7781C100.711 50.7781 101.37 51.4124 101.37 52.7185V56.9352H100.45V53.0046C100.45 51.9349 99.9024 51.6115 99.0939 51.6115C98.36 51.6115 97.6759 52.0592 97.3152 52.5444ZM105.898 57.0845C106.993 57.0845 107.639 56.6367 108.1 56.0396L107.478 55.4674C107.08 56.0023 106.57 56.2511 105.948 56.2511C104.679 56.2511 103.87 55.256 103.87 53.925C103.87 52.5941 104.679 51.6115 105.948 51.6115C106.57 51.6115 107.08 51.8353 107.478 52.3826L108.1 51.8229C107.639 51.2259 106.993 50.7781 105.898 50.7781C104.107 50.7781 102.9 52.1463 102.9 53.925C102.9 55.7038 104.107 57.0845 105.898 57.0845ZM114.53 56.1516C113.921 56.7486 113.112 57.0845 112.142 57.0845C110.351 57.0845 109.07 55.8033 109.07 53.925C109.07 52.1836 110.314 50.7781 112.03 50.7781C113.846 50.7781 114.916 52.1961 114.916 53.9997V54.236H110.065C110.14 55.3679 110.923 56.3133 112.217 56.3133C112.913 56.3133 113.598 56.0396 114.083 55.5421L114.53 56.1516ZM113.996 53.5394H110.053C110.102 52.6314 110.737 51.5492 112.018 51.5492C113.386 51.5492 113.983 52.6563 113.996 53.5394ZM120.576 56.0272V59.2239H119.643V50.9273H120.576V51.8229C121.011 51.2134 121.757 50.7781 122.603 50.7781C124.183 50.7781 125.278 51.9722 125.278 53.925C125.278 55.8655 124.183 57.0845 122.603 57.0845C121.782 57.0845 121.073 56.6864 120.576 56.0272ZM122.367 56.251C121.633 56.251 120.899 55.8033 120.576 55.2808V52.5692C120.899 52.0468 121.633 51.6114 122.367 51.6114C123.573 51.6114 124.295 52.5941 124.295 53.925C124.295 55.2559 123.573 56.251 122.367 56.251ZM130.813 56.0893C130.352 56.6118 129.569 57.0844 128.673 57.0844C127.417 57.0844 126.758 56.4625 126.758 55.1689V50.9273H127.69V54.8828C127.69 55.9401 128.225 56.2511 129.046 56.2511C129.768 56.2511 130.464 55.8281 130.813 55.343V50.9273H131.745V56.9352H130.813V56.0893ZM136.572 57.0845C138.139 57.0845 139.246 55.8903 139.246 53.9375C139.246 52.0095 138.152 50.778 136.572 50.778C135.763 50.778 135.029 51.1761 134.544 51.8353V48.6386H133.611V56.9352H134.544V56.0396C134.992 56.6491 135.726 57.0845 136.572 57.0845ZM134.544 55.3057C134.868 55.8281 135.601 56.251 136.348 56.251C137.554 56.251 138.276 55.2684 138.276 53.9374C138.276 52.6065 137.554 51.6114 136.348 51.6114C135.601 51.6114 134.868 52.0592 134.544 52.5816V55.3057ZM141.697 56.9352V48.6386H140.764V56.9352H141.697ZM144.657 49.4471C144.657 49.7954 144.383 50.069 144.035 50.069C143.687 50.069 143.401 49.7954 143.401 49.4471C143.401 49.0988 143.687 48.8127 144.035 48.8127C144.383 48.8127 144.657 49.0988 144.657 49.4471ZM144.495 56.9352V50.9273H143.562V56.9352H144.495ZM151.212 56.0396C150.752 56.6367 150.105 57.0845 149.011 57.0845C147.219 57.0845 146.013 55.7038 146.013 53.925C146.013 52.1463 147.219 50.7781 149.011 50.7781C150.105 50.7781 150.752 51.2259 151.212 51.8229L150.59 52.3826C150.192 51.8353 149.682 51.6115 149.06 51.6115C147.792 51.6115 146.983 52.5941 146.983 53.925C146.983 55.256 147.792 56.2511 149.06 56.2511C149.682 56.2511 150.192 56.0023 150.59 55.4674L151.212 56.0396ZM154.297 57.0845C155.105 57.0845 155.802 56.7984 156.287 56.2511V56.9352H157.22V52.8056C157.22 51.3502 156.175 50.7781 154.894 50.7781C153.911 50.7781 153.14 51.1015 152.493 51.7732L152.929 52.42C153.463 51.8353 154.048 51.5866 154.77 51.5866C155.64 51.5866 156.287 52.0468 156.287 52.8429V53.925C155.802 53.3777 155.118 53.1165 154.297 53.1165C153.277 53.1165 152.207 53.7385 152.207 55.0943C152.207 56.4003 153.289 57.0845 154.297 57.0845ZM153.153 55.0943C153.153 55.8655 153.762 56.4128 154.645 56.4128C155.292 56.4128 155.926 56.164 156.287 55.6665V54.5221C155.926 54.037 155.292 53.7882 154.645 53.7882C153.762 53.7882 153.153 54.3355 153.153 55.0943ZM160.628 57.0844C161.163 57.0844 161.499 56.9227 161.735 56.6988L161.462 55.9898C161.337 56.1266 161.101 56.251 160.827 56.251C160.429 56.251 160.23 55.9276 160.23 55.4798V51.7482H161.449V50.9273H160.23V49.2854H159.285V50.9273H158.29V51.7482H159.285V55.6788C159.285 56.5744 159.733 57.0844 160.628 57.0844ZM163.85 49.4471C163.85 49.7954 163.576 50.069 163.228 50.069C162.88 50.069 162.593 49.7954 162.593 49.4471C162.593 49.0988 162.88 48.8127 163.228 48.8127C163.576 48.8127 163.85 49.0988 163.85 49.4471ZM163.688 56.9352V50.9273H162.755V56.9352H163.688ZM171.151 53.925C171.151 55.6665 170.007 57.0845 168.178 57.0845C166.35 57.0845 165.206 55.6665 165.206 53.925C165.206 52.1836 166.35 50.7781 168.178 50.7781C170.007 50.7781 171.151 52.1836 171.151 53.925ZM168.178 56.251C166.897 56.251 166.188 55.1564 166.188 53.925C166.188 52.706 166.897 51.6114 168.178 51.6114C169.46 51.6114 170.169 52.706 170.169 53.925C170.169 55.1564 169.46 56.251 168.178 56.251ZM173.602 52.5444V56.9352H172.669V50.9273H173.602V51.798C174.025 51.288 174.845 50.7781 175.754 50.7781C176.997 50.7781 177.657 51.4124 177.657 52.7185V56.9352H176.736V53.0046C176.736 51.9349 176.189 51.6115 175.38 51.6115C174.646 51.6115 173.962 52.0592 173.602 52.5444ZM187.222 52.6811V56.9351H186.289V50.9272H187.222V51.885C187.707 51.2631 188.404 50.7904 189.225 50.7904V51.7482C189.113 51.7358 189.001 51.7233 188.864 51.7233C188.279 51.7233 187.496 52.196 187.222 52.6811ZM193.018 57.0845C194.847 57.0845 195.991 55.6665 195.991 53.925C195.991 52.1836 194.847 50.7781 193.018 50.7781C191.19 50.7781 190.046 52.1836 190.046 53.925C190.046 55.6665 191.19 57.0845 193.018 57.0845ZM191.028 53.925C191.028 55.1564 191.737 56.251 193.019 56.251C194.3 56.251 195.009 55.1564 195.009 53.925C195.009 52.706 194.3 51.6114 193.019 51.6114C191.737 51.6114 191.028 52.706 191.028 53.925ZM198.442 56.9352V52.5444C198.765 52.0592 199.412 51.6115 200.022 51.6115C200.818 51.6115 201.129 52.0966 201.129 52.8553V56.9352H202.062V52.5319C202.373 52.0468 203.032 51.6115 203.654 51.6115C204.437 51.6115 204.761 52.0966 204.761 52.8553V56.9352H205.694V52.5941C205.694 51.3876 205.109 50.7781 204.014 50.7781C203.144 50.7781 202.335 51.3502 201.999 51.8975C201.825 51.2756 201.303 50.7781 200.395 50.7781C199.499 50.7781 198.703 51.4124 198.442 51.798V50.9273H197.509V56.9352H198.442ZM211.851 50.3178V56.9352H210.818V48.6386H211.876L216.652 55.1191V48.6386H217.684V56.9352H216.689L211.851 50.3178ZM220.657 56.9352V48.6386H219.625V56.9352H220.657Z" fill="white"/>
<path d="M262.385 37.7883L264.938 27.4271H266.32L266.408 29.6103L263.679 40.2444H262.218L262.385 37.7883ZM260.774 27.4271L262.869 37.7531V40.2444H261.276L258.371 27.4271H260.774ZM269.058 37.7091L271.118 27.4271H273.53L270.625 40.2444H269.031L269.058 37.7091ZM266.98 27.4271L269.533 37.8235L269.683 40.2444H268.222L265.501 29.6015L265.607 27.4271H266.98ZM278.882 40.4204C278.16 40.4204 277.512 40.3031 276.937 40.0683C276.362 39.8336 275.871 39.5079 275.467 39.0912C275.067 38.6686 274.759 38.1786 274.542 37.6211C274.331 37.0577 274.225 36.4532 274.225 35.8076V35.4555C274.225 34.7219 274.331 34.0558 274.542 33.4572C274.753 32.8527 275.053 32.3333 275.44 31.8991C275.827 31.4648 276.291 31.1303 276.831 30.8955C277.371 30.6608 277.967 30.5434 278.618 30.5434C279.293 30.5434 279.889 30.6578 280.405 30.8867C280.922 31.1097 281.353 31.4266 281.699 31.8374C282.045 32.2482 282.307 32.7412 282.483 33.3164C282.659 33.8856 282.747 34.5165 282.747 35.209V36.1862H275.282V34.584H280.458V34.4079C280.446 34.0382 280.376 33.7008 280.247 33.3956C280.117 33.0845 279.918 32.8381 279.648 32.6561C279.378 32.4683 279.029 32.3744 278.6 32.3744C278.254 32.3744 277.952 32.4507 277.694 32.6033C277.441 32.75 277.23 32.9613 277.06 33.2371C276.896 33.5071 276.772 33.8299 276.69 34.2055C276.608 34.5811 276.567 34.9977 276.567 35.4555V35.8076C276.567 36.2067 276.62 36.5764 276.725 36.9168C276.837 37.2572 276.998 37.5536 277.21 37.8059C277.427 38.0524 277.685 38.2461 277.984 38.3869C278.289 38.5219 278.636 38.5894 279.023 38.5894C279.51 38.5894 279.95 38.4955 280.343 38.3077C280.743 38.114 281.089 37.8294 281.382 37.4538L282.553 38.6686C282.353 38.9621 282.084 39.2438 281.743 39.5137C281.409 39.7837 281.004 40.0038 280.528 40.174C280.053 40.3383 279.504 40.4204 278.882 40.4204ZM284.296 26.7228H286.629V38.1404L286.4 40.2444H284.296V26.7228ZM292.756 35.3851V35.5699C292.756 36.2801 292.677 36.9315 292.518 37.5242C292.366 38.117 292.134 38.6305 291.823 39.0648C291.512 39.4932 291.124 39.8277 290.661 40.0683C290.203 40.3031 289.666 40.4204 289.05 40.4204C288.463 40.4204 287.952 40.306 287.518 40.0771C287.09 39.8482 286.729 39.5255 286.435 39.1088C286.142 38.6862 285.907 38.1903 285.731 37.6211C285.555 37.0459 285.423 36.418 285.335 35.7372V35.2354C285.423 34.5488 285.555 33.9208 285.731 33.3516C285.907 32.7823 286.142 32.2864 286.435 31.8638C286.729 31.4413 287.09 31.1156 287.518 30.8867C287.946 30.6578 288.451 30.5434 289.032 30.5434C289.654 30.5434 290.197 30.6637 290.661 30.9043C291.13 31.1391 291.517 31.4736 291.823 31.9079C292.134 32.3363 292.366 32.8469 292.518 33.4396C292.677 34.0265 292.756 34.675 292.756 35.3851ZM290.423 35.5699V35.3851C290.423 34.9801 290.391 34.5987 290.326 34.2407C290.262 33.8768 290.156 33.557 290.009 33.2811C289.863 33.0053 289.663 32.7882 289.411 32.6297C289.158 32.4713 288.841 32.392 288.46 32.392C288.096 32.392 287.785 32.4537 287.527 32.5769C287.274 32.7001 287.063 32.8703 286.893 33.0875C286.729 33.3046 286.599 33.5599 286.506 33.8533C286.418 34.1468 286.359 34.4637 286.33 34.8041V36.1774C286.371 36.6293 286.467 37.0371 286.62 37.401C286.773 37.759 286.999 38.0436 287.298 38.2549C287.603 38.4662 287.996 38.5718 288.477 38.5718C288.853 38.5718 289.167 38.4984 289.419 38.3517C289.672 38.1991 289.871 37.9879 290.018 37.7179C290.165 37.4421 290.267 37.1222 290.326 36.7584C290.391 36.3945 290.423 35.9984 290.423 35.5699Z" fill="white"/>
</svg>
